<?xml version="1.0" encoding="UTF-8" standalone="no"?>
<svg
   xmlns:dc="http://purl.org/dc/elements/1.1/"
   xmlns:cc="http://creativecommons.org/ns#"
   xmlns:rdf="http://www.w3.org/1999/02/22-rdf-syntax-ns#"
   xmlns:svg="http://www.w3.org/2000/svg"
   xmlns="http://www.w3.org/2000/svg"
   xmlns:sodipodi="http://sodipodi.sourceforge.net/DTD/sodipodi-0.dtd"
   xmlns:inkscape="http://www.inkscape.org/namespaces/inkscape"
   id="Capa_1"
   enable-background="new 0 0 512 512"
   height="482.5097"
   viewBox="0 0 356.07501 482.5097"
   width="356.07501"
   version="1.1"
   sodipodi:docname="fridge.svg"
   inkscape:version="1.0.1 (3bc2e813f5, 2020-09-07)">
  <metadata
     id="metadata13">
    <rdf:RDF>
      <cc:Work
         rdf:about="">
        <dc:format>image/svg+xml</dc:format>
        <dc:type
           rdf:resource="http://purl.org/dc/dcmitype/StillImage" />
      </cc:Work>
    </rdf:RDF>
  </metadata>
  <defs
     id="defs11" />
  <sodipodi:namedview
     pagecolor="#ffffff"
     bordercolor="#666666"
     borderopacity="1"
     objecttolerance="10"
     gridtolerance="10"
     guidetolerance="10"
     inkscape:pageopacity="0"
     inkscape:pageshadow="2"
     inkscape:window-width="1920"
     inkscape:window-height="1001"
     id="namedview9"
     showgrid="false"
     inkscape:zoom="1.6210938"
     inkscape:cx="178.035"
     inkscape:cy="539.00954"
     inkscape:window-x="-9"
     inkscape:window-y="-9"
     inkscape:window-maximized="1"
     inkscape:current-layer="Capa_1" />
  <path
     d="m 354.5705,83.572 c 4.142,0 7.5,-3.358 7.5,-7.5 V 28.052 C 362.0695,12.584 349.4855,0 334.0175,0 H 34.0515 C 18.5835,0 5.9995,12.584 5.9995,28.053 v 424.619 c 0,15.468 12.584,28.053 28.053,28.053 106.25397,2.09284 204.72418,2.65008 299.969,0 15.468,0 28.053,-12.584 28.053,-28.053 V 111.134 c 0,-4.142 -3.357,-7.5 -7.5,-7.5 -4.142,0 -7.49322,3.35801 -7.5,7.5 v 61.073 h -213.491 c -4.142,0 -7.5,3.358 -7.5,7.5 0,4.142 3.358,7.5 7.5,7.5 h 213.487 v 265.466 c 0,7.197 -5.855,13.053 -13.053,13.053 H 34.0515 c -7.197,0 -13.050289,-5.856 -13.053,-13.053 V 187.206 h 77.524 c 4.142,0 7.5,-3.358 7.5,-7.5 0,-4.142 -3.358,-7.5 -7.5,-7.5 H 20.9985 V 28.053 C 20.9985,20.856 26.8545,15 34.0515,15 h 299.966 c 7.198,0 13.053,5.856 13.053,13.053 v 48.02 c 0,4.141 3.357,7.499 7.5,7.499 z"
     id="path2"
     sodipodi:nodetypes="sscssssccsssscssscsssscssscssssss"
     style="fill:#ffffff" />
  <path
     d="m 34.046,58.622 v 69.962 c 0,11.713 9.529,21.242 21.242,21.242 11.713,0 21.242,-9.529 21.242,-21.242 V 58.622 c 0,-11.713 -9.529,-21.242 -21.242,-21.242 -11.713,0 -21.242,9.529 -21.242,21.242 z m 27.485,0 v 69.962 c 0,3.442 -2.801,6.242 -6.243,6.242 -3.442,0 -6.243,-2.8 -6.243,-6.242 V 58.622 c 0,-3.442 2.801,-6.243 6.243,-6.243 3.442,0 6.243,2.801 6.243,6.243 z"
     id="path4"
     style="fill:#ffffff" />
  <path
     d="m 34.046,226.064 v 69.962 c 0,11.713 9.529,21.242 21.242,21.242 11.713,0 21.242,-9.529 21.242,-21.242 v -69.962 c 0,-11.713 -9.529,-21.242 -21.242,-21.242 -11.713,0 -21.242,9.529 -21.242,21.242 z m 27.485,0 v 69.962 c 0,3.442 -2.801,6.243 -6.243,6.243 -3.442,0 -6.243,-2.801 -6.243,-6.243 v -69.962 c 0,-3.442 2.801,-6.243 6.243,-6.243 3.442,0 6.243,2.801 6.243,6.243 z"
     id="path6"
     style="fill:#ffffff" />
</svg>
